<svg width="84" height="85" viewBox="0 0 84 85" fill="none" xmlns="http://www.w3.org/2000/svg">
<path d="M73.5254 33.5634C72.9216 34.8164 72.5964 36.1854 72.5719 37.5761C72.5475 38.9669 72.8245 40.3464 73.3838 41.6199L49.2211 70.8123C48.6757 71.4711 47.9463 71.9524 47.126 72.1946C46.3058 72.4367 45.4319 72.4289 44.6161 72.1719L14.9606 62.8361C13.1147 62.3402 11.4176 61.4013 10.0166 60.1011C9.09419 58.9329 8.46228 57.5625 8.17286 56.1025C7.8542 54.1991 7.86188 52.2554 8.19558 50.3546C9.30707 44.9649 13.2812 46.55 13.2812 46.55" stroke="white" stroke-width="1.74763" stroke-linejoin="round"/>
<path d="M13.2811 46.5518L43.5238 56.779C44.3329 57.0523 45.2053 57.077 46.0286 56.8499C46.8518 56.6229 47.5882 56.1544 48.1428 55.5049L75.6784 23.2717C75.8731 23.0438 76.0055 22.7694 76.0628 22.4752C76.1201 22.181 76.1003 21.877 76.0053 21.5927C75.9103 21.3084 75.7433 21.0536 75.5207 20.8529C75.298 20.6522 75.0273 20.5126 74.7347 20.4475L42.0436 13.2246C41.1907 13.036 40.3026 13.0831 39.4744 13.3608C38.6462 13.6385 37.9092 14.1363 37.3424 14.8009L9.68799 47.2491" stroke="white" stroke-width="1.74763" stroke-linejoin="round"/>
<path d="M34.5691 27.2056L56.6329 33.5005L62.1729 27.2562L39.4345 21.8176L34.5691 27.2056Z" stroke="white" stroke-width="1.74763" stroke-linejoin="round"/>
</svg>
